<svg xmlns="http://www.w3.org/2000/svg" width="1400" height="1050" viewBox="0 0 700 525"><title>Priorities + ownership</title><rect x="0" y="0" width="700" height="525" rx="0" fill="#f8faff" stroke="none" stroke-width="2"/><text x="38" y="47" font-family="Arial, sans-serif" font-size="18" fill="#5a687a" text-anchor="start">CRAFT / WORKFLOW</text><text x="38" y="99" font-family="Arial, sans-serif" font-size="32" fill="#202a35" text-anchor="start">Priorities + ownership</text><path d="M38 125 L662 125" fill="none" stroke="#cbd6e7" stroke-width="1" stroke-dasharray=""/><rect x="230" y="165" width="240" height="70" rx="8" fill="white" stroke="#bccae0" stroke-width="2"/><text x="350.0" y="209" font-family="Arial, sans-serif" font-size="25" fill="#202a35" text-anchor="middle">Project brief</text><rect x="55" y="333" width="240" height="70" rx="8" fill="white" stroke="#bccae0" stroke-width="2"/><text x="175.0" y="377" font-family="Arial, sans-serif" font-size="25" fill="#202a35" text-anchor="middle">Priority</text><rect x="405" y="333" width="240" height="70" rx="8" fill="white" stroke="#bccae0" stroke-width="2"/><text x="525.0" y="377" font-family="Arial, sans-serif" font-size="25" fill="#202a35" text-anchor="middle">Owner</text><path d="M310 250 L190 315" fill="none" stroke="#225ed0" stroke-width="3" stroke-dasharray=""/><path d="M197.06301689113423 304.08607346572495 L190 315 L202.99991682158287 315.04650410655324" fill="none" stroke="#225ed0" stroke-width="3"/><path d="M390 250 L510 315" fill="none" stroke="#225ed0" stroke-width="3" stroke-dasharray=""/><path d="M497.0000831784171 315.04650410655324 L510 315 L502.9369831088658 304.08607346572495" fill="none" stroke="#225ed0" stroke-width="3"/><path d="M38 459 L662 459" fill="none" stroke="#cbd6e7" stroke-width="1" stroke-dasharray=""/><text x="38" y="492" font-family="Arial, sans-serif" font-size="16" fill="#5a687a" text-anchor="start">WORKFLOW DIAGRAM</text></svg>