<svg xmlns="http://www.w3.org/2000/svg" width="1400" height="1050" viewBox="0 0 700 525"><title>Mesh + stencil</title><rect x="0" y="0" width="700" height="525" rx="0" fill="#f8faff" stroke="none" stroke-width="2"/><text x="38" y="47" font-family="Arial, sans-serif" font-size="18" fill="#5a687a" text-anchor="start">CRAFT / SILKSCREEN</text><text x="38" y="99" font-family="Arial, sans-serif" font-size="32" fill="#202a35" text-anchor="start">Mesh + stencil</text><path d="M38 125 L662 125" fill="none" stroke="#cbd6e7" stroke-width="1" stroke-dasharray=""/><text x="350" y="183" font-family="Arial, sans-serif" font-size="25" fill="#202a35" text-anchor="middle">Stencil openings define the image</text><path d="M90 218 L90 367" fill="none" stroke="#a8b9cf" stroke-width="1" stroke-dasharray=""/><path d="M110 218 L110 367" fill="none" stroke="#a8b9cf" stroke-width="1" stroke-dasharray=""/><path d="M130 218 L130 367" fill="none" stroke="#a8b9cf" stroke-width="1" stroke-dasharray=""/><path d="M150 218 L150 367" fill="none" stroke="#a8b9cf" stroke-width="1" stroke-dasharray=""/><path d="M170 218 L170 367" fill="none" stroke="#a8b9cf" stroke-width="1" stroke-dasharray=""/><path d="M190 218 L190 367" fill="none" stroke="#a8b9cf" stroke-width="1" stroke-dasharray=""/><path d="M210 218 L210 367" fill="none" stroke="#a8b9cf" stroke-width="1" stroke-dasharray=""/><path d="M230 218 L230 367" fill="none" stroke="#a8b9cf" stroke-width="1" stroke-dasharray=""/><path d="M250 218 L250 367" fill="none" stroke="#a8b9cf" stroke-width="1" stroke-dasharray=""/><path d="M270 218 L270 367" fill="none" stroke="#a8b9cf" stroke-width="1" stroke-dasharray=""/><path d="M290 218 L290 367" fill="none" stroke="#a8b9cf" stroke-width="1" stroke-dasharray=""/><path d="M310 218 L310 367" fill="none" stroke="#a8b9cf" stroke-width="1" stroke-dasharray=""/><path d="M330 218 L330 367" fill="none" stroke="#a8b9cf" stroke-width="1" stroke-dasharray=""/><path d="M350 218 L350 367" fill="none" stroke="#a8b9cf" stroke-width="1" stroke-dasharray=""/><path d="M370 218 L370 367" fill="none" stroke="#a8b9cf" stroke-width="1" stroke-dasharray=""/><path d="M390 218 L390 367" fill="none" stroke="#a8b9cf" stroke-width="1" stroke-dasharray=""/><path d="M410 218 L410 367" fill="none" stroke="#a8b9cf" stroke-width="1" stroke-dasharray=""/><path d="M430 218 L430 367" fill="none" stroke="#a8b9cf" stroke-width="1" stroke-dasharray=""/><path d="M450 218 L450 367" fill="none" stroke="#a8b9cf" stroke-width="1" stroke-dasharray=""/><path d="M470 218 L470 367" fill="none" stroke="#a8b9cf" stroke-width="1" stroke-dasharray=""/><path d="M490 218 L490 367" fill="none" stroke="#a8b9cf" stroke-width="1" stroke-dasharray=""/><path d="M510 218 L510 367" fill="none" stroke="#a8b9cf" stroke-width="1" stroke-dasharray=""/><path d="M530 218 L530 367" fill="none" stroke="#a8b9cf" stroke-width="1" stroke-dasharray=""/><path d="M550 218 L550 367" fill="none" stroke="#a8b9cf" stroke-width="1" stroke-dasharray=""/><path d="M570 218 L570 367" fill="none" stroke="#a8b9cf" stroke-width="1" stroke-dasharray=""/><path d="M590 218 L590 367" fill="none" stroke="#a8b9cf" stroke-width="1" stroke-dasharray=""/><path d="M610 218 L610 367" fill="none" stroke="#a8b9cf" stroke-width="1" stroke-dasharray=""/><path d="M90 218 L620 218" fill="none" stroke="#a8b9cf" stroke-width="1" stroke-dasharray=""/><path d="M90 238 L620 238" fill="none" stroke="#a8b9cf" stroke-width="1" stroke-dasharray=""/><path d="M90 258 L620 258" fill="none" stroke="#a8b9cf" stroke-width="1" stroke-dasharray=""/><path d="M90 278 L620 278" fill="none" stroke="#a8b9cf" stroke-width="1" stroke-dasharray=""/><path d="M90 298 L620 298" fill="none" stroke="#a8b9cf" stroke-width="1" stroke-dasharray=""/><path d="M90 318 L620 318" fill="none" stroke="#a8b9cf" stroke-width="1" stroke-dasharray=""/><path d="M90 338 L620 338" fill="none" stroke="#a8b9cf" stroke-width="1" stroke-dasharray=""/><path d="M90 358 L620 358" fill="none" stroke="#a8b9cf" stroke-width="1" stroke-dasharray=""/><rect x="90" y="218" width="195" height="149" rx="0" fill="#e6eefb" stroke="none" stroke-width="2"/><rect x="415" y="218" width="205" height="149" rx="0" fill="#e6eefb" stroke="none" stroke-width="2"/><rect x="285" y="218" width="130" height="36" rx="0" fill="#e6eefb" stroke="none" stroke-width="2"/><rect x="285" y="331" width="130" height="36" rx="0" fill="#e6eefb" stroke="none" stroke-width="2"/><text x="350" y="298" font-family="Arial, sans-serif" font-size="23" fill="#225ed0" text-anchor="middle">OPEN</text><text x="350" y="421" font-family="Arial, sans-serif" font-size="25" fill="#5a687a" text-anchor="middle">Mesh supports the stencil</text><path d="M38 459 L662 459" fill="none" stroke="#cbd6e7" stroke-width="1" stroke-dasharray=""/><text x="38" y="492" font-family="Arial, sans-serif" font-size="16" fill="#5a687a" text-anchor="start">SCHEMATIC / NOT TO SCALE</text></svg>